<svg width="50" height="50" viewBox="0 0 50 50" fill="none" xmlns="http://www.w3.org/2000/svg">
<path d="M37.648 2H12.352C7.20825 2 3 6.20825 3 11.352V36.648C3 41.7918 7.20825 46 12.352 46H37.648C42.7918 46 47 41.7918 47 36.648V11.352C47 6.20825 42.7918 2 37.648 2ZM17.577 39.0005C15.3326 37.7922 13.3685 36.1596 12.3141 33.7966C10.4598 29.6424 9.81585 24.4659 10.6239 19.8085C11.4317 15.1523 13.6999 10.9752 17.7107 8.88518C19.7414 7.82717 22.3537 7.24569 24.9641 7.18581C27.5741 7.12595 30.2066 7.58698 32.2745 8.63828C36.2316 10.6501 38.1386 13.7925 39.7005 17.7637L39.8013 18.0199L36.1256 19.0701L36.0586 18.8267C35.3375 16.207 34.1146 14.1932 32.3868 12.8333C30.66 11.4741 28.406 10.75 25.5889 10.75C23.3386 10.75 21.3336 10.9773 19.6618 11.8061C15.6611 13.7884 13.984 18.4624 13.8189 23.2865C13.6988 26.7915 14.2678 30.2978 15.8065 32.8021C17.5564 35.6497 21.213 37.4685 24.6475 37.4685C27.9095 37.4685 30.4765 36.9006 32.4478 35.0515C33.7968 33.7858 34.5992 32.1556 34.6462 30.5519C34.6898 29.0663 34.0867 27.5801 32.6238 26.3967C31.9068 30.8959 28.474 33.0368 25.1775 33.143C23.4818 33.1976 21.81 32.715 20.5568 31.7287C19.298 30.738 18.4722 29.2461 18.4722 27.3176C18.4722 25.7077 19.1017 24.3035 20.3413 23.1157C21.5865 21.9225 23.1384 21.512 24.7278 21.3879C25.5221 21.3259 26.3325 21.335 27.1244 21.3562C27.3042 21.361 27.4828 21.3664 27.6601 21.3718L27.6607 21.3718L27.6613 21.3718C28.1558 21.3868 28.6397 21.4015 29.1105 21.4017C28.9302 20.8003 28.5944 20.123 28.0904 19.5706C27.5042 18.928 26.696 18.4585 25.6322 18.4585C23.8957 18.4585 22.4889 18.8955 21.7389 20.1494L21.6058 20.3719L18.7295 18.5059L18.8373 18.3035C19.9341 16.2441 22.1366 14.9214 25.4402 14.9214C28.7812 14.9214 32.0645 17.1137 32.6072 21.2631L32.7505 22.3582C34.5686 23.1323 35.8766 24.5157 36.7845 25.8933C39.4406 29.9238 37.9553 35.0567 34.2234 38.2192C32.1603 39.9675 29.1196 40.8215 25.1466 40.8215C23.4619 40.8215 22.2165 40.7178 21.0649 40.4355C19.9121 40.153 18.8661 39.6946 17.577 39.0005ZM24.8496 29.669C24.1243 29.669 23.3832 29.4037 22.8266 28.9626C22.2709 28.5222 21.9171 27.9229 21.9171 27.2551C21.9171 26.4669 22.2793 25.882 23.0026 25.4033C23.7676 24.8969 24.9009 24.7054 26.0965 24.7073C27.2004 24.709 28.3221 24.8752 29.1818 25.0784C29.1523 26.3399 28.8362 27.4115 28.2434 28.3031C27.6544 29.1892 26.5549 29.669 24.8496 29.669Z" fill="black"/>
</svg>
